<svg xmlns="http://www.w3.org/2000/svg" xmlns:xlink="http://www.w3.org/1999/xlink" width="208" height="303">
  <defs>
    <radialGradient xlink:href="#prefix__a" id="prefix__e" cx="48.231" cy="18.138" fx="48.231" fy="18.138" r="9.5"
      gradientUnits="userSpaceOnUse" gradientTransform="matrix(-1.56053 .01828 -.02684 -2.29095 123.984 58.81)" />
    <radialGradient xlink:href="#prefix__b" id="prefix__f" cx="171.487" cy="511.223" fx="171.487" fy="511.223"
      r="81.903" gradientTransform="matrix(1.15299 -.67392 .39482 .67549 -233.633 270.4)"
      gradientUnits="userSpaceOnUse" />
    <radialGradient r="81.903" fy="511.223" fx="171.487" cy="511.223" cx="171.487"
      gradientTransform="matrix(1.15299 -.67392 .39482 .67549 -233.633 270.4)" gradientUnits="userSpaceOnUse"
      id="prefix__h" xlink:href="#prefix__c" />
    <radialGradient r="81.903" fy="461.841" fx="181.694" cy="461.841" cx="181.694"
      gradientTransform="matrix(1.15299 -.67392 .39482 .67549 -233.633 270.4)" gradientUnits="userSpaceOnUse"
      id="prefix__i" xlink:href="#prefix__d" />
    <linearGradient id="prefix__a">
      <stop offset="0" />
      <stop offset="1" stop-opacity=".75" />
    </linearGradient>
    <linearGradient id="prefix__b">
      <stop offset="0" stop-color="#fff" stop-opacity=".534" />
      <stop offset="1" stop-opacity="0" />
    </linearGradient>
    <linearGradient id="prefix__c">
      <stop offset="0" stop-color="#fff" stop-opacity=".519" />
      <stop offset="1" stop-opacity="0" />
    </linearGradient>
    <linearGradient id="prefix__d">
      <stop offset="0" stop-color="#fff" stop-opacity=".702" />
      <stop offset="1" stop-opacity="0" />
    </linearGradient>
    <filter color-interpolation-filters="sRGB" id="prefix__g" x="-.139" width="1.279" y="-.162" height="1.325">
      <feGaussianBlur stdDeviation="9.511" />
    </filter>
  </defs>
  <rect width="208" height="303" rx="8" fill="#FFF" stroke="#000" />
  <path
    d="M50.291 22.698s2.375-1.9 2.375-4.534c0-1.542-1.369-4.102-4.534-4.102s-4.534 2.561-4.534 4.102c0 2.634 2.375 4.534 2.375 4.534-2.638-2.055-7.34-.652-7.34 3.455 0 2.056 1.68 4.318 4.317 4.318 3.165 0 4.534-3.455 4.534-3.455s.402 3.938-1.943 6.046h5.182c-2.345-2.107-1.943-6.046-1.943-6.046s1.37 3.455 4.534 3.455c2.64 0 4.318-2.263 4.318-4.318 0-4.107-4.703-5.51-7.34-3.455z"
    fill="url(#prefix__e)" transform="translate(-181.377 52.886) scale(5.97203)" />
  <path transform="matrix(.22864 0 0 .24885 23.571 68.56)"
    d="M117.301 604.266s-8.067-94.95 22.857-122.857c34.761-31.369 140-11.429 140-11.429s-71.54 24.838-100 48.572c-27.21 22.692-62.857 85.714-62.857 85.714z"
    fill="url(#prefix__f)" filter="url(#prefix__g)" />
  <path transform="matrix(.22864 0 0 .24885 55.442 23.018)"
    d="M117.301 604.266s-8.067-94.95 22.857-122.857c34.761-31.369 140-11.429 140-11.429s-71.54 24.838-100 48.572c-27.21 22.692-62.857 85.714-62.857 85.714z"
    fill="url(#prefix__h)" filter="url(#prefix__g)" />
  <path transform="matrix(.23543 .1449 -.17355 .28197 181.628 28.623)"
    d="M117.301 604.266s-8.067-94.95 22.857-122.857c34.761-31.369 140-11.429 140-11.429s-71.54 24.838-100 48.572c-27.21 22.692-62.857 85.714-62.857 85.714z"
    fill="url(#prefix__i)" filter="url(#prefix__g)" />
  <path
    d="M156.202 48.5s8.354-6.684 8.354-15.949c0-5.424-4.815-14.43-15.949-14.43-11.133 0-15.948 9.01-15.948 14.43 0 9.265 8.354 15.949 8.354 15.949-9.28-7.229-25.823-2.294-25.823 12.153 0 7.232 5.91 15.19 15.19 15.19 11.132 0 15.948-12.154 15.948-12.154s1.414 13.852-6.835 21.267h18.229c-8.25-7.411-6.835-21.267-6.835-21.267s4.815 12.153 15.949 12.153c9.283 0 15.189-7.96 15.189-15.189 0-14.447-16.544-19.382-25.823-12.153z" />
  <text font-size="80" x="56" y="60" text-anchor="middle" dominant-baseline="middle" font-family="Arial"
    stroke="#000" stroke-width="3">A</text>
</svg>