<svg xmlns="http://www.w3.org/2000/svg" xmlns:xlink="http://www.w3.org/1999/xlink" width="208" height="303">
  <defs>
    <linearGradient id="prefix__a">
      <stop offset="0" />
      <stop offset="1" stop-opacity=".649" />
    </linearGradient>
    <linearGradient id="prefix__b">
      <stop offset="0" stop-color="#fff" stop-opacity=".435" />
      <stop offset="1" stop-opacity="0" />
    </linearGradient>
    <linearGradient id="prefix__c">
      <stop offset="0" stop-color="#fff" stop-opacity=".489" />
      <stop offset="1" stop-opacity="0" />
    </linearGradient>
    <linearGradient id="prefix__d">
      <stop offset="0" stop-color="#fff" stop-opacity=".237" />
      <stop offset="1" stop-opacity="0" />
    </linearGradient>
    <linearGradient id="prefix__e">
      <stop offset="0" stop-color="#df0000" />
      <stop offset="1" stop-color="#df0000" stop-opacity=".672" />
    </linearGradient>
    <linearGradient id="prefix__f">
      <stop offset="0" stop-color="#fff" stop-opacity=".313" />
      <stop offset="1" stop-opacity="0" />
    </linearGradient>
    <linearGradient id="prefix__g">
      <stop offset="0" stop-color="#fff" stop-opacity=".29" />
      <stop offset="1" stop-opacity="0" />
    </linearGradient>
    <radialGradient xlink:href="#prefix__e" id="prefix__h" cx="-.206" cy="-4.579" fx="-.206" fy="-4.579" r="8"
      gradientTransform="matrix(-1 0 0 -1.72018 -.412 -13.027)" gradientUnits="userSpaceOnUse" />
    <radialGradient r="81.903" fy="511.223" fx="171.487" cy="511.223" cx="171.487"
      gradientTransform="matrix(1.15299 -.67392 .39482 .67549 -233.633 270.4)" gradientUnits="userSpaceOnUse"
      id="prefix__i" xlink:href="#prefix__f" />
    <radialGradient r="81.903" fy="492.632" fx="159.354" cy="492.632" cx="159.354"
      gradientTransform="matrix(1.08948 -.71514 .44645 .65627 -244.933 290.918)" gradientUnits="userSpaceOnUse"
      id="prefix__k" xlink:href="#prefix__g" />
    <filter color-interpolation-filters="sRGB" id="prefix__j" x="-.139" width="1.279" y="-.162" height="1.325">
      <feGaussianBlur stdDeviation="9.511" />
    </filter>
    <filter color-interpolation-filters="sRGB" id="prefix__l" x="-.139" width="1.279" y="-.162" height="1.325">
      <feGaussianBlur stdDeviation="9.511" />
    </filter>
  </defs>
  <rect width="208" height="303" rx="8" fill="#FFF" stroke="#000" />
  <path
    d="M3.676-9C.433-9 0-5.523 0-5.523S-.433-9-3.676-9C-5.946-9-8-7.441-8-4.5-8-.614-1.42 3.294 0 9 1.352 3.299 8-.614 8-4.5 8-7.441 5.946-9 3.676-9z"
    fill="url(#prefix__h)" transform="matrix(6.8256 0 0 6.38811 105.542 197.273)" />
  <path transform="matrix(.2922 0 0 .3026 18.065 3.161)"
    d="M117.301 604.266s-8.067-94.95 22.857-122.857c34.761-31.369 140-11.429 140-11.429s-71.54 24.838-100 48.572c-27.21 22.692-62.857 85.714-62.857 85.714z"
    fill="url(#prefix__i)" filter="url(#prefix__j)" />
  <path transform="matrix(.22705 .0665 -.06483 .27594 117.214 2.903)"
    d="M117.301 604.266s-8.067-94.95 22.857-122.857c34.761-31.369 140-11.429 140-11.429s-63.093 37.07-91.552 60.805c-27.21 22.692-71.305 73.481-71.305 73.481z"
    fill="url(#prefix__k)" filter="url(#prefix__l)" />
  <g>
    <path fill="#df0000"
      d="M162.283 21.632c-12.617 0-14.302 12.661-14.302 12.661s-1.684-12.66-14.301-12.66c-8.832 0-16.823 5.676-16.823 16.385 0 14.15 25.597 28.38 31.124 49.157 5.26-20.76 31.125-35.007 31.125-49.157 0-10.709-7.99-16.386-16.823-16.386z" />
  </g>
  <g fill="#df0000" text-anchor="middle" dominant-baseline="middle" font-family="Arial"><text font-size="80" x="56"
      y="60">A</text></g>
</svg>