<svg xmlns="http://www.w3.org/2000/svg" xmlns:xlink="http://www.w3.org/1999/xlink" width="208" height="303">
  <defs>
    <radialGradient r="81.903" fy="511.223" fx="171.487" cy="511.223" cx="171.487"
      gradientTransform="matrix(1.15299 -.67392 .39482 .67549 -233.633 270.4)" gradientUnits="userSpaceOnUse"
      id="prefix__d" xlink:href="#prefix__a" />
    <radialGradient xlink:href="#prefix__b" id="prefix__c" gradientUnits="userSpaceOnUse"
      gradientTransform="matrix(-1.12242 .00551 -.00909 -1.85031 -.03 -10.228)" cx="0" cy="-3.234" fx="0" fy="-3.234"
      r="8" />
    <linearGradient id="prefix__b">
      <stop offset="0" stop-color="#df0000" />
      <stop offset="1" stop-color="#df0000" stop-opacity=".75" />
    </linearGradient>
    <linearGradient id="prefix__a">
      <stop offset="0" stop-color="#fff" stop-opacity=".435" />
      <stop offset="1" stop-opacity="0" />
    </linearGradient>
    <filter color-interpolation-filters="sRGB" id="prefix__e" x="-.139" width="1.279" y="-.162" height="1.325">
      <feGaussianBlur stdDeviation="9.511" />
    </filter>
  </defs>
  <rect width="208" height="303" rx="8" fill="#FFF" stroke="#000" />
  <path
    d="M3.243-4.725C1.126-7.59 0-10.5 0-10.5s-1.126 2.91-3.243 5.775C-5.361-1.862-8 0-8 0s2.639 1.861 4.757 4.726C-1.126 7.59 0 10.5 0 10.5s1.126-2.91 3.243-5.774C5.361 1.861 8 0 8 0S5.361-1.862 3.243-4.725z"
    fill="url(#prefix__c)" transform="translate(104.684 191.888) scale(5.95137)" />
  <path transform="matrix(-.2491 .04028 -.04172 -.25798 154.179 300.09)"
    d="M117.301 604.266s-8.067-94.95 22.857-122.857c34.761-31.369 140-11.429 140-11.429s-71.54 24.838-100 48.572c-27.21 22.692-62.857 85.714-62.857 85.714z"
    fill="url(#prefix__d)" filter="url(#prefix__e)" />
  <path fill="#df0000"
    d="M158.653 35.545C150.982 25.167 146.9 14.619 146.9 14.619s-4.081 10.548-11.752 20.926c-7.675 10.374-17.237 17.122-17.237 17.122s9.562 6.745 17.237 17.127c7.67 10.374 11.752 20.921 11.752 20.921s4.082-10.547 11.753-20.921c7.675-10.382 17.236-17.127 17.236-17.127s-9.561-6.748-17.236-17.122z" />
  <text font-size="80" x="56" y="60" fill="#df0000" text-anchor="middle" dominant-baseline="middle"
    font-family="Arial">A</text>
</svg>