<?xml version="1.0" encoding="UTF-8" standalone="no"?>
<svg
  xmlns:dc="http://purl.org/dc/elements/1.1/"
  xmlns:cc="http://creativecommons.org/ns#"
  xmlns:rdf="http://www.w3.org/1999/02/22-rdf-syntax-ns#"
  xmlns:svg="http://www.w3.org/2000/svg"
  xmlns="http://www.w3.org/2000/svg"
  xmlns:xlink="http://www.w3.org/1999/xlink"
  width="208"
  height="303"
  viewBox="0 0 208 303"
>
  <defs>
    <radialGradient
      xlink:href="#linearGradient3773"
      id="radialGradient3781"
      cx="-0.15782039"
      cy="-8.8345356"
      fx="-0.15782039"
      fy="-8.8345356"
      r="7.9997029"
      gradientTransform="matrix(-1.5842693,-0.02349808,0.03071979,-2.4775745,-0.24856378,-26.713507)"
      gradientUnits="userSpaceOnUse"
    />
    <linearGradient id="linearGradient3773">
      <stop style="stop-color:#000000;stop-opacity:1;" offset="0" />
      <stop style="stop-color:#000000;stop-opacity:0.64885497;" offset="1" />
    </linearGradient>
    <radialGradient
      xlink:href="#linearGradient3773"
      id="radialGradient3957"
      cx="-0.15782039"
      cy="-8.8345356"
      fx="-0.15782039"
      fy="-8.8345356"
      r="7.9997029"
      gradientTransform="matrix(-1.5842693,-0.02349808,0.03071979,-2.4775745,-0.24856378,-26.713507)"
      gradientUnits="userSpaceOnUse"
    />
    <linearGradient id="linearGradient3959">
      <stop style="stop-color:#000000;stop-opacity:1;" offset="0" />
      <stop style="stop-color:#000000;stop-opacity:0.64885497;" offset="1" />
    </linearGradient>
    <radialGradient
      r="81.902771"
      fy="509.47577"
      fx="168.02475"
      cy="509.47577"
      cx="168.02475"
      gradientTransform="matrix(1.2565605,-0.77740644,0.33663816,0.5361257,-221.20213,359.24256)"
      gradientUnits="userSpaceOnUse"
      id="radialGradient3975"
      xlink:href="#linearGradient3784-4"
    />
    <linearGradient id="linearGradient3784-4">
      <stop style="stop-color:#ffffff;stop-opacity:0.4351145;" offset="0" />
      <stop style="stop-color:#000000;stop-opacity:0;" offset="1" />
    </linearGradient>
    <radialGradient
      xlink:href="#linearGradient3784-4-5"
      id="radialGradient3929"
      gradientUnits="userSpaceOnUse"
      gradientTransform="matrix(1.2565605,-0.77740644,0.33663816,0.5361257,-221.20213,359.24256)"
      cx="168.02475"
      cy="509.47577"
      fx="168.02475"
      fy="509.47577"
      r="81.902771"
    />
    <linearGradient id="linearGradient3784-4-5">
      <stop style="stop-color:#ffffff;stop-opacity:0.48854962;" offset="0" />
      <stop style="stop-color:#000000;stop-opacity:0;" offset="1" />
    </linearGradient>
    <radialGradient
      xlink:href="#linearGradient3784-4-1"
      id="radialGradient3927"
      gradientUnits="userSpaceOnUse"
      gradientTransform="matrix(1.2565605,-0.77740644,0.33663816,0.5361257,-221.20213,359.24256)"
      cx="168.02475"
      cy="509.47577"
      fx="168.02475"
      fy="509.47577"
      r="81.902771"
    />
    <linearGradient id="linearGradient3784-4-1">
      <stop style="stop-color:#ffffff;stop-opacity:0.23664123;" offset="0" />
      <stop style="stop-color:#000000;stop-opacity:0;" offset="1" />
    </linearGradient>
    <radialGradient
      xlink:href="#linearGradient3768"
      id="radialGradient3776"
      cx="-0.20602037"
      cy="-4.5786963"
      fx="-0.20602037"
      fy="-4.5786963"
      r="8"
      gradientTransform="matrix(-1,0,0,-1.7201755,-0.41204074,-13.027194)"
      gradientUnits="userSpaceOnUse"
    />
    <linearGradient id="linearGradient3768">
      <stop style="stop-color:#df0000;stop-opacity:1;" offset="0" />
      <stop style="stop-color:#df0000;stop-opacity:0.67175573;" offset="1" />
    </linearGradient>
    <radialGradient
      r="81.902771"
      fy="511.22299"
      fx="171.48665"
      cy="511.22299"
      cx="171.48665"
      gradientTransform="matrix(1.1529891,-0.67391547,0.39482025,0.67549043,-233.63262,270.40076)"
      gradientUnits="userSpaceOnUse"
      id="radialGradient4013"
      xlink:href="#linearGradient3784-4-6"
    />
    <linearGradient id="linearGradient3784-4-6">
      <stop style="stop-color:#ffffff;stop-opacity:0.31297711;" offset="0" />
      <stop style="stop-color:#000000;stop-opacity:0;" offset="1" />
    </linearGradient>
    <filter
      color-interpolation-filters="sRGB"
      id="filter3834-6"
      x="-0.13934441"
      width="1.2786888"
      y="-0.16242018"
      height="1.3248404"
    >
      <feGaussianBlur stdDeviation="9.5105772" />
    </filter>
    <radialGradient
      r="81.902771"
      fy="492.63205"
      fx="159.35434"
      cy="492.63205"
      cx="159.35434"
      gradientTransform="matrix(1.0894779,-0.71513803,0.44645273,0.65626582,-244.93331,290.9185)"
      gradientUnits="userSpaceOnUse"
      id="radialGradient4013-8"
      xlink:href="#linearGradient3784-4-2"
    />
    <linearGradient id="linearGradient3784-4-2">
      <stop style="stop-color:#ffffff;stop-opacity:0.29007635;" offset="0" />
      <stop style="stop-color:#000000;stop-opacity:0;" offset="1" />
    </linearGradient>
    <filter
      color-interpolation-filters="sRGB"
      id="filter3834-6-3"
      x="-0.13934441"
      width="1.2786888"
      y="-0.16242018"
      height="1.3248404"
    >
      <feGaussianBlur stdDeviation="9.5105772" />
    </filter>
    <radialGradient
      r="81.902771"
      fy="492.63205"
      fx="159.35434"
      cy="492.63205"
      cx="159.35434"
      gradientTransform="matrix(1.0894779,-0.71513803,0.44645273,0.65626582,-244.93331,290.9185)"
      gradientUnits="userSpaceOnUse"
      id="radialGradient3073"
      xlink:href="#linearGradient3784-4-2"
    />
  </defs>

  <rect width="208" height="303" rx="8" fill="#FFFFFF" stroke="#000000" strokeWidth="0.5" />

  <g transform="translate(22.4, 75)">
    <g transform="matrix(0.19686979,0,0,0.19686979,11.54991,16.869674)">
      <g style="stroke:none" transform="matrix(34.670635,0,0,32.448413,363.65075,535.3979)">
        <path
          d="M 3.676,-9 C 0.433,-9 0,-5.523 0,-5.523 0,-5.523 -0.433,-9 -3.676,-9 -5.946,-9 -8,-7.441 -8,-4.5 -8,-0.614 -1.4208493,3.2938141 0,9 1.35201,3.2985969 8,-0.614 8,-4.5 8,-7.441 5.946,-9 3.676,-9 z"
          style="fill:url(#radialGradient3776);fill-opacity:1;stroke:none"
        />
      </g>
      <path
        transform="matrix(1.484247,0,0,1.537104,-80.688965,-450.59362)"
        d="m 117.3013,604.26609 c 0,0 -8.06755,-94.94997 22.85715,-122.85714 34.76052,-31.36871 140,-11.42857 140,-11.42857 0,0 -71.5404,24.83762 -100,48.57143 -27.21033,22.69199 -62.85715,85.71428 -62.85715,85.71428 z"
        style="fill:url(#radialGradient4013);fill-opacity:1;stroke:none;filter:url(#filter3834-6)"
      />
      <path
        transform="matrix(1.153293,0.33782551,-0.32928251,1.4016433,422.93775,-451.90481)"
        d="m 117.3013,604.26609 c 0,0 -8.06755,-94.94997 22.85715,-122.85714 34.76052,-31.36871 140,-11.42857 140,-11.42857 0,0 -63.09295,37.07057 -91.55255,60.80438 -27.21033,22.69199 -71.3046,73.48133 -71.3046,73.48133 z"
        style="fill:url(#radialGradient3073);fill-opacity:1;stroke:none;filter:url(#filter3834-6-3)"
      />
    </g>
  </g>

  <g transform="scale(1.4) translate(22, -18)">
    <g transform="matrix(2.7790082,0,0,2.600887,83.701068,56.859768)">
			<path
				fill="#df0000"
				d="M 3.676,-9 C 0.433,-9 0,-5.523 0,-5.523 0,-5.523 -0.433,-9 -3.676,-9 -5.946,-9 -8,-7.441 -8,-4.5 -8,-0.614 -1.4208493,3.2938141 0,9 1.35201,3.2985969 8,-0.614 8,-4.5 8,-7.441 5.946,-9 3.676,-9 z"
			/>
		</g>
  </g>

  <g
    fill="#df0000"
    stroke="none"
    text-anchor="middle"
    dominant-baseline="middle"
    font-family="Arial"
  >
    <text font-size="80" x="52" y="60">A</text>
  </g>
</svg>