<?xml version="1.0" encoding="UTF-8" standalone="no"?>
<svg xmlns="http://www.w3.org/2000/svg" xml:space="preserve" width="208" height="303" version="1.0" viewBox="0 0 167.08643 242.66699">
  <g stroke="#000" stroke-width=".9984901">
    <path fill="#fe9f34" stroke-width=".49924505" d="M166.83643 235.54785c0 3.77735-3.08594 6.86914-6.87012 6.86914H7.1113281C3.3364258 242.41699.25 239.3252.25 235.54785V7.1201172C.25 3.3427734 3.3364258.25 7.1113281.25H159.96631c3.78418 0 6.87012 3.0927734 6.87012 6.8701172V235.54785z" transform="matrix(1 0 0 1.00303 0 -.367228)"/>
    <g stroke="none">
      <path d="M117.12842 16.0524348c-2.96192 2.14563438-7.55274 6.5040006-9.72461 9.01744484.57031.04750635 1.14648-.41629516 1.78125-.5323684l4.35547-1.41687337c-1.75391 1.63775487-5.47266 4.5576987-6.47852 6.75671617 1.35352-.55832473 4.16211-2.34006808 5.59375-2.54919612-1.19726 1.19403296-3.70703 3.47141288-4.45703 4.87653178.10156.04064966.03906.1635796.05859.24585887 1.04883-.66362346 3.5918-2.38855539 4.77735-2.5585012-1.1582 1.35810203-3.2832 3.96753792-3.68945 5.6625947 1.02734-.76598333 3.62988-2.34692577 4.77929-2.8455012-.23242.67244006-.79883 1.19256351-1.14941 1.87136979-.4834.938868-1.68653 2.04180608-1.67676 3.12662248.8877-.93103236 2.00488-1.77096884 3.13477-2.45369294-.46094 1.12154824-1.36719 2.076578-1.5586 3.39256094.72266-.78998174 2.14746-1.25623264 3.11133-1.65440611l-.1123.1214595c-.08106.07542359-1.14551.92956292-1.85254 1.85716694.66796-.0773815.16406-.13321497 1.03125.01273342l.46582-.00342834c-1.29786.7821451-3.29004 2.0124204-4.50782 2.90182315.73731-.11460381 1.72168-.2052092 2.5586-.1346844-1.64551.80173621-3.39356 1.43940235-4.83887 2.61188528.85938.0107745 1.86328-.03918023 2.6582.27720345-1.60351.53530727-3.18554 1.1333027-4.50781 2.26758536 1.06445-.13125606 2.45899-.34136205 3.53906.04016018-1.64062.41237734-3.14453 1.15436226-4.48632 2.26758437.96289-.09158536 2.31445-.23949266 3.33496-.02252898.12207.04211909.45019-.07689202.59277.10872607-1.83008.67733685-3.69727 1.21019473-5.28809 2.5056076.69629-.09599266 1.65723-.02301846 2.49707-.0333035l.10059.1038293c-1.97168.63374832-3.96191 1.14407722-5.77441 2.21126241.79492.2145143 1.69531.16308912 2.44921.45890373-1.58203.61758655-3.16406 1.19599187-4.488277 2.41157385 1.024417-.110686 2.192387-.22137098 3.297857-.31050695l.08105.10333882c-1.60352.65921617-3.088867 1.66763002-4.392578 2.96598075.941406-.00930507 1.927738-.36829832 2.949218-.21157542-1.625.71945594-3.271484 1.52168163-4.657226 2.79897281 1.06543-.11117547 2.172851-.36486998 3.339844-.31001747l-.000977.1018704c-2.203125 1.1440772-4.505859 2.02172548-6.40918 3.90876657 1.043946-.09109488 2.313477-.1591713 3.481446-.24781778l.100586.10333882c-1.649415 1.1710145-3.442383 2.17697996-4.811524 3.82403891l3.648438-.63472727v.0817898c-1.50586 1.0074339-3.231446 1.64559052-4.455078 3.06785114 1.107422-.19198631 2.375976-.2189226 3.583984-.30805856l-.000977.10333883c-1.956054 1.00400655-3.87207 2.27395157-5.407226 4.10369175 1.024414-.15133565 2.011719-.67439898 3.058594-.92858397.472656-.07689202.985351-.23508436 1.435547-.23018658-1.425782 1.1533823-3.078125 2.53009548-4.039063 4.120343.039063.16455955-.063477.26642894-.105469.40894899 1.006836-.39817448 2.136719-.7752884 3.205078-1.1533823-1.199218 1.07355141-2.768554 2.28815444-3.726562 3.75351311.716797-.09403374 1.355469-.3731961 2.072265-.4682098.017578.30805855-.329101.09991147-.49414.28210122-1.320313.90850338-2.699219 1.65146825-3.900391 2.80778942.779297-.1346834 1.763672-.2874885 2.642578-.21598373-1.5625.67978523-3.206054 1.1533823-4.789062 1.833658.734375.21353434 1.634765.20178087 2.410156.41678464-1.414062.16896685-2.807617.33744423-4.142578.73169988.8125.48290314 1.87793.41237733 2.607422.97511036l-2.417481.36193212c.261231.41384677.645997.78802283.968262 1.2018686-.880859-.01028503-1.920898-.2473283-2.739746-.2365538.220703.41286782.706543.7865534.90625 1.24104983-.981934.02987515-1.960937-.28797796-2.983398-.32128145l.583007.99225108c-.757324-.0088156-1.553222-.22332989-2.371093-.23361492l.398437.94964352c-4.943848.98931322-10.206543 1.3189208-15.440918.99127213l-11.879394-.8154486c-10.323731-.89821834-19.994629-3.39158198-28.677735-8.130001-1.965332-1.66518164-4.691406-3.07176897-5.644531-5.62782177.892578 4.25894523 4.107422 7.62114054 7.241699 10.92162765 6.741211 6.27626242 14.914063 9.16143333 23.191895 11.74099206 3.299316 1.39190002 6.871093 2.21322835 10.380859 3.07519932l11.266113 2.51196978c5.655762 1.21314061 11.638184.5441319 17.192383-.29433815l3.015625-.70378365c-.265625 1.822389-1.654297 3.3053839-2.267578 5.04304723l.969727 4.69091468-1.844727 2.05160064-.0625 1.90711466c.443359.51865502.578125 1.26015247 1.003906 1.69603774.476563-.6317864.431641-2.02759821 1.554688-1.8493303l.080078.1439945c.048828 1.12840493-.149414 2.35721281.125 3.38815365l1.15625.91487059 6.537109-.76599136 5.041018 1.04417075c1.94922-.47016871 4.50195.07346167 5.52929-2.11184241.39161-.22185945.81836.00979957 1.22754.01469434.44825.18905045.8545.46233508 1.32325.56909723l.0039-.24683481-1.24219-2.3332104c-.75683-.00784366-.50195-.84630368-.67968-1.30080513-.59375-.08913897-1.03711-.70966138-1.71485-.44959664l-1.45703-1.39336443c-1.31152.12880867-2.58789.81202024-3.93359.386416-.466798-.37515201-1.615236-.18268124-1.398439-1.14505517l-.730469-.54264742c-.013672-.57449352-.068359-1.21166617-.678711-1.44430816l-.141601-.14594037c.189453-2.31606866 1.173828-4.27511 1.833008-6.38156616 1.661132-3.86027827 4.909182-7.02461655 7.446292-10.5053295 4.02246-1.04073839 7.76757-2.84452124 11.29297-5.14345018.5664 4.06989778 2.98437 7.38164888 4.78515 10.93288963.17481.84336483.06055 1.84786588.07227 2.66918418.89843 1.98058635 2.02148 3.86126123 3.12597 5.7419361.08692 1.2733824-.333 2.29452365-.81543 3.29461139l.41407 1.38063602 2.15136 1.50160103c.04786-.65529734-.25-1.37769715-.28222-2.11772015.3916-.20031444.77929-.19590112.89648.31932355.17188.98637636 1.53125 1.9879285.45703 3.00172761-.05664 1.3747583.19532 2.63000596.28125 3.94305805l.65039.45938619c1.67969-.18512862 3.30078-.53579675 4.96094-.78361454 2.47266.35752884 4.96289.79635297 7.5.86687577l1.97363-.81985388.65137-1.40904174 1.18359.15819736c.44727.31344581.85157.74933108 1.31836 1.00008773-.25586-.74149744.06446-1.96932236-1.0166-2.32978003l-.18066-.18709456c1.00879-.62541717 1.65039.47016872 2.44531.8085899-.03516-.55489438-.19141-1.17247792-.32812-1.72884674l-1.07618-.79144817c.0586-1.51825127-1.7207-1.53882335-2.42382-2.69710844-.9336-.70769544-1.8418-.02008059-2.70508.35899325-.98145-.05190662-2.04785.12048356-2.83985-.38102974.02539-.5544029-.13281-.96678725-.61914-1.2792501l-.05468-.740023c-1.81543-2.21664866-3.26172-4.61451414-3.14454-7.62996316-.09765-3.98370068-.48242-7.86748487-1.38183-11.53186302-.62598-2.53107443-1.16895-5.10279953-1.87793-7.61477433.13672-1.08726478.35547-2.31558019.08105-3.38521477-1.21484-1.16464629-2.59765-1.9198551-3.8955-2.85823363 1.23828-2.67408496 2.41406-5.36971895 3.24609-8.23333983l1.09961-3.18931165c-.46484-4.0694073-.78223-8.42434518-.28516-12.62647798.24805-.099422 2.1836-.80467508 2.48438-.82279576.52929.73904605.90625 1.6059198.63672 2.59474355-.38672-.00489778-.79102-.35409547-1.21973-.46722985.27441.56273303.69824 1.08530588.60254 1.81749624-.29883-.06807742-.46582-.52257385-.72266-.67733685l.19727 1.59808317c.57422.45890473 1.36914.44666078 2.14258.43392636l-.20703 1.24741704c-.42969-.0906054-.83301-.44029357-1.23829-.74737217-.13378.42951805.20606.80026577.31055 1.18962465l-.51465-.12929715c.1211.62591267.60645 1.40169056.94239 1.94385452l1.24218.4882894 2.48438-1.22096924c.67969-1.21999028.82617-2.66184102 1.12109-4.05961275-.4414-.91046229-1.20508-1.67399723-1.81836-2.49973086l.23145-1.50600933 1.34863-1.42813736c-.46191-.91046229-.11914-2.63098591-1.73437-2.45565185l-5.89063.33401589c-.21875-.4750665.0332-1.12840493-.18555-1.58241188-.57422-1.71072807-.6748-3.62029913-1.41308-5.29184698 1.13379-2.44928463.21972-6.47706332 3.38379-8.30288568 2.1289-1.25378325 2.34375-1.88851052 4.89453-1.55645455 1.37793.1787624 4.41699 1.03143331 5.83008.63815661 1.29492-.82475467 1.92578-1.19109408 3.05957-2.15983723.13379-.53285789 1.24316-.68174515 1.34375-1.35712308-.57129-.0063662-2.24121-.35752382-2.55957-1.11909884l-.44922-.06758694-1.28711.83454922-.32813-1.0647358c-.49218.2806318-.58203.3379337-1.07617.7003553-.17773-.47310659-.21289-.85218043-.33008-1.36642716-.41113.26153117-.7539-.09795256-1.22461.12243946l-.29492-.52208337c-.39062.24145157-1.14453.57497698-1.56836.78508397-.20117-.28993788-.01172-.71700755-.13086-1.02653554-.4707.19982196-.86328.56420246-1.33593.76353494-.11915-.24683883-.42579-.89185113-.46485-1.17933962-.24609.14105062-.69531.39866296-1.06445.5171856-.18164-.18610858.89648-.33303693.77832-.54020506l-.9541.39278723-.19336-1.02604506-1.24219.42951805c-.06641-.68174414.14746 1.3321447.01563.47163816.24414-.05142417.36914-.5720381.81835-.65039956l.62598 1.72591088c.15723.0019589 1.03613-1.36348929.9375-.9168295l.19434.53873561c.02929.07444363.20508.30903751.37597 1.31059468.80567-.54314292.58692-.45253752 1.37891-1.05494025.19629.8306314.13965.79291961.11426 1.248395l.17383-.03232354c.60937-.53432732 1.07129-.47016872 1.73144-1.02702502.08594.3624216-.07129.98784379.08301 1.30618738l1.24805-.64109448c.15234.49906491.05078.77577788.15429 1.26308833l1.3125-1.29198453c.37793.47849485.13477 1.2106852.2793 1.84002522.51562-.43196745 1.04395-1.19207404 1.50195-1.7298287.12793.63570722-.26367 1.31059468-.02148 1.90124394.45312-.15378404 1.01172-.36976776 1.44238-.59064926.17578.40894899-.96387.62346328-.80957 1.03241227 2.00977.31197637 2.51953.22332989 3.06348-.67292854-.42871.67880527.75781-2.6006213 1.26855-3.8397112l.00586-.65578783c-.64258-1.60983763-.6543-4.42105539-.95703-4.80992378-1.96875-2.39639103-8.63281-2.43851013-11.81055-5.5607243.42676-1.6548966-.71875-2.94002443-1.86718-3.90044146-1.70704-1.09706035-3.94922-.43441684-5.67481.14888626-2.0166-.30365026-3.89941-.90752342-5.87109-1.36055042-4.34375-.21402481-8.44043 3.09821577-8.44043 3.09821577z"/>
      <path fill="#fb0f0c" d="m129.86475 16.77531908-1.4043.60926042c-.18945-.32568976.22266-.66607185.37695-.98735431.11035-.23508436.45508-.3820117.52344-.66215403-1.86719-.19492418-3.66406-.99127213-5.62305-.58183366-2.09472.43686522-3.2832 1.29051508-4.45019 2.29599007-.59668.36095317-.86817.84287535-1.44434 1.26749663-.69531.68027571-.94531 1.97666753-1.11426 2.23036305 1.03418-.50298273 2.10157-.49220822 2.80762-.7664728-2.61523 1.79300733-2.91797 5.0435387-2.0293 7.69509469l-.04101.06121973c-.93555-.48290214-1.25-1.44821795-1.5459-2.2910933-.14941.5720391-.1377 1.2880667-.22656 1.92279397-.30371-.2497767-.4834-.62052441-.66309-.94964252-.1543 2.8631314 1.38672 5.10769731 3.24414 7.2641072 1.24414 1.44576857-.97851 2.56241902-.34375 4.42595217l2.72852-.29336522c.3457-.14741782.23828-.09550317.23828-.09550317-.61524 1.37769214-4.19141 2.58445852-4.84863 3.38815364.20312.14741683 3.34375-.9809881 4.50097-1.23615205l-4.93457 3.34113677c.34668.08521714 1.65332-.03281401 2.39746-.1787624-.72461.68958078-3.21484 1.65489559-3.8789 2.44830568l2.32031-.41384677-3.76367 3.11878583c.12695 1.5202122-.26563 2.0280927-1.44238 2.99879477-2.00782 1.92671279-4.45704 3.19176003-5.99708 5.53476798-1.02929 2.20440572-1.83398 4.51410917-3.08496 6.61370664 1.59864-.33058754 3.08204-1.11273263 4.87891-.76500437 4.99707 1.43352561 8.83301 2.38071974 11.55176 6.10680608 1.23633 1.06179794 2 2.36259807 3.34179 3.11780688l4.43946 5.40889918.17969.35066713c1.31835-2.55115503-.04883-7.03196071-.07422-10.19286564.03711-.18219076 1.23632 1.58486026 1.33886 1.54518956.62989 2.21273184 1.05469 3.06246388.75879.56273303l-1.16406-4.93236325 1.84961 2.4698547c.3418.5171856.57129.464292.99414 1.0030266.82617-.6469712-.04883-1.55939241-.08008-2.40079933-.35449-1.25672111-1.08789-.89185113-1.92969-2.46691584l-2.61914-3.31909726 3.875 1.34144978c-.27539-1.05004347.02637.36976776-.45312-.86442437l-3.50879-4.14630133 4.54004 1.5642912c-.04785-1.10783486-.04883.1919853-.38477-.79683844-.40527-.37368558-1.43164-.11901111-1.42187-.95992755l-.42383-.49759548c-.41504-1.21607145-.9541-2.45369294-1.00098-3.7471469l.46973-1.63726438c.55078-1.59367587 1.77149-.98392597 2.7168-1.34291922-.34961-1.66616058-1.04688-3.23485908-1.02735-4.97938112.62891-1.30618738 1.54493-3.5105931 1.32227-4.72029734l.67969-1.13379218c-.97071.29042635-1.94141.73169988-2.66016 1.56331024-.25195-.45449643.07617-1.03290175.23047-1.48348036.46289-.92172628 1.45703-1.44870642 2.2373-1.99968598l-1.73339-.6450123c-.92969-1.3899361-2.61426-2.48699644-2.7461-4.17029875l.4082.1126449c1.63477 1.634815 3.9043 2.9121072 6.10938 2.8964349-1.50391-.04701687 6.2002-1.34634756 5.71094-1.96442358.88476 1.1156715 3.40039 1.47221536 5.25195 1.98548313.82031-.3379337 1.18945-.27328563 1.78809-.8595276-.28223-.26985728-.70801-.48045275-1.11426-.60681103-2.42383-.52012446-8.12793-1.36006094-9.46485-3.59483129-.17773.99127213.79102 1.75039877 1.8711 2.53107444l-2.2461-.1900264c-4.01562-1.57016793-3.70117-4.64046746-2.99121-7.58049088l.42481 2.40079833.83789 1.27729218c1.32617-2.66330945.57812-2.3018678-2.54102-5.63614789l2.25782.71113082c1.05273.74247439 2.78711 2.03054109 4.31054 2.90818936 4.10157 2.33370187 6.1543 3.91513379 11.20899 3.99643411l1.57129.25565443c.95214-2.87586583-1.31641-5.3662906-.46582-1.46095137-.87305-.93397123-1.72461-1.79594721-1.58399-2.31460224-.31054-.4109079 1.11524-1.5530252.96387-2.03103057-1.53027-1.3698565-7.8584-1.81651628-11.44629-4.9509744-.07031.55930468 1.68359 1.90565224 2 2.3836576-3.38477.210106-5.43359-.7023152-5.85156-1.75676598-.08399-.17484358-.03321-.97511036.31445-1.24986542.47559-.27524455.93164-.67929576 1.49121-.75961612-.91699-.6562773-1.98144.34332096-2.73828.80908238-.55176 1.04808356.4502 2.13143152.6123 2.9517779-.83593-.16064174-2.02539-1.52413102-2.20898-2.40961494-1.24805.20031143-2.4082.10186938-3.41016-.55636682.8418-.22724771 1.70508-.58477153 2.58789-.78900179 2.30665-.62003493 4.63379-3.09331798 7.08594-1.38405935l-1.16797-1.30618738c-2.21093-.11117447-4.07031.9873543-6.05468 1.58926857z"/>
      <path d="M122.2251 18.2108036c-.58887.74737217-1.17871 1.49523382-1.27442 2.4634875l.14844.15378504c.39258-.51424773.99805-.95943808 1.56055-1.27582276.05371 1.01233168.77344 1.96981084 1.6914 2.41108437l.15039.0024484c-.24511-1.05934856-.1875-2.3728831.18946-3.36023742.65137-.59554704 1.53515-.86491385 2.08008-1.48396983-1.45899-.254185-2.81641.09697262-4.02539.62052442l-.52051.46870028z"/>
      <path fill="#fff" d="M136.85693 20.4269628c-.63476-.76990116-1.50976-1.36838607-2.57422-1.22096924.0625.98784378 1.47071 1.49180647 2.57422 1.22096923z"/>
      <path d="M128.31104 21.00291972c-.92481.11803216-1.78614.32520028-2.64942.5945681.4043.32764866.89844.41923301 1.28125.72582214-1.12305.48241266-2.30859.81398016-3.26465 1.7298297l.21387.10970604c1.83203-.47408755 4.02344-.5568563 5.97656-.25369552l.10742-.08472867-1.22363-1.93209904 1.70215-.45449643c-.95703-.78704288-2.04492-1.55351568-3.26563-1.84786086.20899.47653493.74024.93543966 1.12208 1.41344402v-.00048948zm6.8291 1.64314213c.92187.11754168 1.93261.0861971 2.79492-.11901211-1.47559-.64207344-3.30469-.4045407-4.51563-1.60445038.25098.64991008.77539 1.69064848 1.72071 1.72346249zm-13.40235 5.78062585c.417 1.10391703-.71679 2.53499326.30274 3.51598036.87109.89332056 1.91601 1.61767428 2.91797 2.25387198l-.10352-.34577035c-.91211-.93788805-1.75976-1.9815653-2.21875-3.12907087 1.02637.29189679 2.11719.71406868 3.27734.81348968-1.39648-1.8272908-3.86914-3.5150004-3.10937-6.15578187.02637-.4309875.58887-.7909607.42187-1.18129853-1.30175 1.08383644-1.79101 2.60894641-1.48828 4.2285796z"/>
      <path fill="#fff" d="M139.60107 28.95856663c-.11523.2252888-.05273.54265243-.07812.81348968.27344-.15525348.45703-.47016872.73047-.6033837-.08985-.15819133-.4502-.14007065-.65235-.21010598zm1.73047 1.59024752.54688-.58232314c-.13281-.09256532-.31055-.2296971-.53906-.16455956l-.00782.7468827zm1.38965.52404228c.13574.00244839.41406-.63325884.54981-.63129993l-.47071-.23998113c-.1582-.00146944-.03222.75912563-.0791.87128106zm1.41797.20716812-.12793.36046269c.31641-.04162962.44727-.65040057.62891-.82916197-.53321-.0754236-.56055-.21696368-.50098.46869928zm1.54785.73463875.51856-.98392597-.53516-.09109587.0166 1.07502184zm1.44336-.2409621.62598-.5211034c-.66895-.21745317-.71094-.309528-.62598.5211034zm1.55078-.46869928c.11035.27279615.03906.61121933.03516.90507503.13867-.29238626.48047-.51424672.50586-.85364986-.15625-.11509329-.36035-.04897578-.54102-.05142517z"/>
      <path d="M129.67041 42.97743009c.22754.37172768.26172.83699862.48926 1.20872529.4375-1.0627769.3164-2.30578563-.3711-3.20498293-1.13476-.42021298-2.23242-.86050655-3.22851-1.56967846.4668 1.30471895 1.84375 2.69808338 3.11035 3.5659361zm-1.22559 10.88832416-.06836-3.05805558c-1.48437-.83846805-3.05273-1.51433546-4.42968-2.65841267 1.14258 2.04523442 2.63281 4.09438567 4.49804 5.71646825z"/>
      <path fill="#fb0f0c" d="M128.9292 51.28227469c.17187 1.1112642.28125 2.26170763.80273 3.21281958 1.42969.16015125 4.78614-.99029218 6.02344-.17876141l.19238.00195891c.56934.95405082.74903 2.12114649.99512 3.15796606.29297-1.1597495-.20605-2.67408396 1.07031-3.39305042l-.18554-.73463875-6.0791.143499c-1.38672-.42755914-.87598-3.88966593-2.81934-2.20979297z"/>
      <path d="M106.58154 56.89442416c-.46191.98049762-.74023 2.0236844-1.12109 3.04532217l.14453.00146943c1.49609-1.95266912 3.45703-3.49002303 5.2168-5.25462566l1.7539-3.03895495c-2.04492 1.6392233-4.03027 3.44300616-5.99414 5.24678901zm13.98633-4.4759079c-.94141 1.81504684-2.37305 3.4199877-2.86621 5.44612049-2.71191 2.71914292-6.10059 3.76771696-9.52832 4.71344166-.04102-.04162962-.06055-.12439837-.14258-.10431878l-.10254.10187039.2041.0019589-.00097.10333883c3.0039.40405121 6.19922.07199424 8.51465-1.87283823.84375-.5235528 1.54882-1.4183428 2.71289-1.09706034l.34765-.0573019c-.39941-2.52960601.07813-5.04892698.96289-7.23374159l-.10156-.00146943z"/>
      <path fill="#fb0f0c" d="m137.67432 61.14798214-.16895 1.61522489c.61035-.79145018 1.3291-1.55890294 1.12598-2.63833209-.23926.34136205-.46094.87764828-.95703 1.0231072zm-36.32325 5.64153515c-1.11328.74590273-1.12695 2.03935669-1.406246 3.18539281-.160156 4.9446072.955076 9.51356989 4.453126 13.04326363 3.96094 2.6113958 8.61621 3.52773482 13.52246 3.91219592l4.27441.23361492.14063.1459484c-.86719.64697121-1.85156.96384537-2.81836 1.36348928 1.52832.53138845 3.07812 1.02114728 4.64844 1.47074593-1.09278.68468401-2.40625 1.05886008-3.79981 1.1465266.01465 4.1247503 3.05078 7.03343015 4.35938 10.64148233.33691 1.02947641.28125 2.21910608.45312 3.30930573 1.08692 1.5926959 1.92676 3.2848118 2.72559 4.99848275.2168.78214009-.5332 1.81945013.46582 2.22154344-.125.24390598-.1709.53187491-.2959.77676386 1.02734-.3781009 1.60938.55244699 2.09375 1.25573915l1.01758 2.22791265-.22852 2.17305713.57422 1.62747084c.65625-.07444463 1.35352-.29139929 2.01172-.50983842 2.67383.6259187 5.36621 1.33410562 8.29297 1.22439457.22949-.42755012.45996-.8570762.85351-1.22047273-.93554-.46233509-2.14453-.45645735-3.18359-.73512823-.91406-.56420246-1.74512-1.2728909-2.59668-1.99968398.51172-.0156773 1.22754.09549816 1.71973-.06268916-.42383-.43588527-1.26563-.30267331-1.50196-1.06425135l-1.83886 1.5177598c-1.02246-.01175548-1.98926.38789044-2.98926.10971104 1.34082-.88793932 2.62207-2.00115843 3.76172-3.2613109-1.71875.0822883-2.74805 2.22595676-4.6875 1.95659396l-.04102-.04065267c1.28321-1.19598885 2.36231-2.57956375 3.48243-3.90093093-.75977-1.56869348-1.66309-3.07813818-1.80469-4.90542195.46582-3.17658524-.46289-6.04020612-.79688-9.02038772-.66797-4.29616655-2.17773-8.25537934-2.8457-12.53195577l-.02051-1.72493092-1.07519-.81251073c-.125.28601906-.16993.59309866-.35743.83699862-1.51757-3.28040652-4.19921-6.67835472-7.40722-8.80782733.53613 1.4007106 1.54394 2.68534895 2.69824 3.72510739-4.38672-1.18031958-6.87891-6.7297799-11.05273-8.58351749-2.15625-1.15387277-4.4375-2.08294522-6.8877-2.5428289.69922-.28014232 1.51953-.45547638 2.31934-.56910024-1.28125-.73267984-2.8545-.93543966-4.51368-.85169095l-.09961-.08374871c1.23243-.54020505 2.56446-.77039163 4.03907-.69203018-1.12305-.2806318-2.18164-.76500337-3.43262-.5940776l-2.22559 1.4114861z"/>
      <path fill="#fb0f0c" d="M92.247559 86.32551652c-2.50586 2.49581304-4.998047 5.711081-8.283203 6.69843531-3.107911 1.56575963-6.453125 2.44977512-9.999512 2.90231264-11.789551.29483465-23.379395-.7424754-34.407715-2.67653335-4.591309-1.09950974-9.014648-2.5873974-13.290527-4.42203535 3.368164 2.41989997 6.996094 5.45787596 11.052246 6.85956551 6.884277 2.82982892 13.852539 5.43437004 21.284668 6.89679285l10.248047 2.08833147c4.620605.34086856 9.370605.1498622 13.757812-.58086273 7.030762-1.14994994 13.565918-3.5164608 19.622555-7.09954264 2.83008-2.26611593 6.33594-2.80044224 9.48243-4.28294364l1.72949-.86197599c-.6875-.7468827-1.70606-1.148975-2.58106-1.61130706-4.11035-1.9355284-9.41211-1.70827968-12.164059-6.23610224l.103515-.10187039c1.177735.73219036 2.482424 1.19893074 3.808594 1.56282177-3.505859-3.07715622-4.767578-7.25774-4.816406-11.8154377-1.564453 4.35395792-2.396485 9.02234162-5.548828 12.68035154h.001953z"/>
      <path d="M102.0835 76.09542957c.91015 2.74020147 2.5664 6.39184519 5.85351 7.10836326l2.01758.6802747c-.99414-.8747094-2.35059-2.05943628-3.11523-3.23828642-1.97461-.72092537-3.54493-2.9757763-4.75586-4.54937258v-.00097896zm12.12988 7.53004567c.77344.35654486 1.67187.57350754 2.6123.62493271 1.43067.1195006 2.92578.07444363 4.31836-.09403374.91407.54412187 1.72461 1.3541832 2.61719 1.93895573 1.2207.7116203 2.4375 1.56771955 3.97461 1.33851192-1.55664-1.55645455-3.1543-3.23828743-4.96289-4.30547262-2.91895-.6097499-5.61328.55097956-8.55957.497106zM96.568848 96.01637939c-2.944336 3.41460044-4.480469 2.2955016-8.222657 3.87350517-4.99121 1.68623817-10.421875 2.3219464-15.891113 2.81317868-5.361328.06121471-10.488281-.77822828-15.553223-1.61718982 3.6875 1.37769716 7.646973 2.30529616 11.754395 2.80534504 4.068359.3335264 8.565918.73316229 12.34375-.39181228 7.239746-1.4560536 14.300293-3.38521478 20.30615-7.89246526 1.56641-.82475367 2.18164-1.8669615 4.41992-2.25631937l1.58204-2.85137794c-2.6836 2.82542061-8.341801 5.2781336-10.738286 5.51713678h-.000976v-.000001z"/>
      <path d="M86.725098 95.3997728c.549804.2737751 1.327148.26202164 1.895508.59701647-1.619141.37172768-3.359375.4329474-5.060059.63962505.32373.29091683.876465.23606432 1.282715.46723086-.78125.40111234-1.804199.3687878-2.707032.54265243-1.679687.1655385-3.378418.22675824-5.018066.43490632.733398.21353533 1.532227.26349007 2.307617.37466554l-1.230469.2321465-10.870117.47016871-3.29541.00244839.162598.16651846c9.5 1.29932568 19.95166 1.64657349 27.587402-3.86762744l2.579102-1.90026599c-2.603516.46233308-5.148438 1.0696346-7.632813 1.8405147h-.000976zm39.381832 9.29758817c.91993 1.69359035 1.78125 3.42831482 2.9502 4.95978599.10156-1.7430496.42871-3.46307973.73144-5.06068044-.47265.28210123-.90625.6254272-1.33984 1.01087027-.90234-1.67301828-1.43164-3.58749515-2.47754-5.24238874l-.39551-1.23565956c.10254 1.78664213.28516 3.7383313.53125 5.567581v.00049148z"/>
      <path fill="#fb0f0c" d="M91.395996 105.24049987c-.109375.5122858-.667969.97706827-.326172 1.57752011-.396484.5901608-.628906 1.32675344-.943359 2.00066695l-1.460938 2.5888618c-.506836 1.22537754 2.273438 1.46242282.665039 2.53205039l.541993 2.71571458-1.132813.7248472c.485352.39670705 1.181641.38396861 1.606445.7992818.006836 1.27289091-.131836 2.58446856.450196 3.59679321 1.595703-.00146442 3.050781-.29287373 4.58789-.43882414 3.167969.36389806 7.023433 1.47662567 9.907223-.23507934.14551-.16309212.41309-.30218182.45606-.52796311l-1.03711-.60828548c-1.3125.31344581-2.7666.37956532-4.11816.44519335l.84863-.83062638c-1.26563-.22039504-2.384768-.72583017-3.567385-1.10881582-.578125.40355772-1.135742.84875108-1.733398 1.2106832l-.101563-.10431477.507813-1.32725495c-1.072266.68566899-2.508789.9770783-3.900391 1.08384046l-.101562-.10383332 2.231445-1.88263077c-1.166992-.03379197-2.350586-.29581261-3.367188-.77822828.535157-.30266328 1.311524-.21010398 1.907227-.43049902l2.035156-.75618175.160157-1.47613419c-.841797.29875147-1.628907 1.02800196-2.606446.6474637.807617-.83259232 2.041992-1.41296357 2.526367-2.51541017.47754-2.43703367.50879-4.66446487 1.373047-6.93204722l3.381841-3.23338664c-3.209966 1.46094836-5.461919 2.2553354-8.790044 3.36562566v.00097294z"/>
      <path d="M131.58057 107.22451657c-.49121 1.86206874-.51856 4.26237157.42285 5.91481777.20117.41384878.4414.80566106.58008 1.23811598l.10254.00146442.59082-1.61424092c-.71582-1.7944848-1.49317-3.58895957-1.69629-5.54015725z"/>
      <path fill="#fb0f0c" d="m142.47607 117.09904263 1.66211-.309534c-.53027-.1699428-1.22656-.0548455-1.66211.309534zm.66407 1.09461297c.48437.60190623 1.36718.34479039 2.0625.27131869-.58985-.29482964-1.36524-.46820279-2.0625-.2713187z"/>
      <path d="M135.34717 20.61943858c-.36719-.0729742-.59961-.45890473-.52149-.86344542.08008-.40601012.44141-.67488845.8086-.60191425.36718.07199524.59961.4593942.52148.86344541-.08008.4045407-.44238.6739085-.80859.60191426zm-5.9502 30.00606933 1.28516-2.57025566c-1.4834-.83650813-4.40527-2.00115542-5.78223-3.14670207 1.14258 2.04523443 2.63281 4.09487616 4.49707 5.71695773zm.11035-4.01651369.9375-1.87381819c-1.08203-.61024038-3.21093-1.45899246-4.21582-2.29354169.83301 1.49180548 1.9209 2.98410143 3.27832 4.16735988zm-.67382 10.32461118c.27441.44861869 1.38281 2.2930522 1.91894 1.15681063.53027-1.28512783-1.10254-2.94100338-1.93262-4.03022708-1.72363-.6386461-3.0625-1.2968823-3.9082-1.89879655.56641 1.57849405 2.38867 3.72167904 3.92188 4.772213zM51.262695 223.97083478c2.962403-2.1451429 7.553223-6.5039956 9.725098-9.01645687-.570313-.04800485-1.146973.4153132-1.78125.53187492l-4.356445 1.41638389c1.753418-1.63775186 5.473632-4.55770272 6.479004-6.75671818-1.354004.55832473-4.162598 2.3400711-5.59375 2.55066656 1.197754-1.19501593 3.706054-3.47337079 4.457031-4.8779992-.101563-.04114416-.039063-.16260065-.057617-.24586189-1.049317.66509691-3.592286 2.38904888-4.778321 2.55751723 1.158692-1.35760654 3.283692-3.96704042 3.69043-5.66063077-1.028808.76500839-3.630859 2.34594882-4.780273 2.84452325.231933-.67293054.799316-1.19207705 1.149414-1.87185827.483398-.93838153 1.685547-2.04131961 1.677246-3.12662448-.888184.93152083-2.005371 1.77096382-3.135254 2.45271097.460938-1.12057129 1.367188-2.076576 1.55957-3.3910925-.724609.78949226-2.148437 1.25574917-3.112793 1.65538506l.112793-.12243946c.081055-.07541757 1.146485-.92956493 1.851563-1.85716393-.666504.07836647-.163574.13321197-1.030762-.01273844l-.465332.00392184c1.297363-.78263157 3.291016-2.01290387 4.508301-2.90133468-.737305.11362285-1.72168.2057007-2.559082.1351779 1.645019-.80320365 3.392578-1.44086778 4.837891-2.61335572-.859375-.01077251-1.861329.03917821-2.656739-.27720647 1.603028-.53579675 3.184082-1.1332997 4.507813-2.26758235-1.065918.13125606-2.459473.34086856-3.539063-.04114415 1.640625-.41041843 3.143555-1.15387177 4.48584-2.2665994-.962402.09207785-2.314941.23900119-3.334961.02252798-.123047-.04211708-.451172.0773835-.593262-.10872808 1.82959-.67586941 3.697754-1.2087273 5.288574-2.5056106-.696289.09599968-1.657226.02155505-2.49707.03331052l-.100586-.10383332c1.97168-.63472526 3.962402-1.1440722 5.774902-2.2117539-.79541-.21353432-1.696289-.16260063-2.450195-.45841324 1.583008-.61709205 3.165039-1.19598886 4.488281-2.41156682-1.023925.11068398-2.191406.22136797-3.297363.31147988l-.081543-.10578922c1.604004-.6582362 3.089356-1.66714054 4.393067-2.96401381-.941407.00880657-1.927247.3682913-2.949219.2115684 1.625-.7199424 3.270996-1.52216308 4.657226-2.79945727-1.066406.11166695-2.172851.3643795-3.339843.30952398l.001464-.10186739c2.203125-1.14408223 4.504395-2.0217305 6.408692-3.90828311-1.043946.09109487-2.314453.16064474-3.480469.24781778l-.101563-.10284032c1.649903-1.17150498 3.441895-2.17747044 4.811524-3.82403891l-3.649414.63472526.000976-.08227827c1.505371-1.00694843 3.231446-1.64559553 4.45459-3.06785716-1.106933.19198932-2.375488.21941207-3.584473.30756808l.001954-.10285035c1.955078-1.00399954 3.872558-2.2734601 5.407714-4.10515718-1.024414.1528111-2.012695.67586942-3.05957.9305479-.471191.07640054-.984863.23507934-1.435059.2292016 1.424805-1.1528888 3.078125-2.5291115 4.038086-4.1198515-.039062-.16455655.064453-.26643396.106446-.40943547-1.006836.39866296-2.136719.77577087-3.205567 1.15387177 1.200196-1.07355943 2.769043-2.28815443 3.726563-3.7535161-.717285.09403374-1.354492.3731961-2.071778.46722984-.017089-.3065851.329102-.09892851.494629-.28111826 1.320313-.90899286 2.699219-1.65147327 3.898926-2.80730094-.778808.13419493-1.762207.28797897-2.64209.21549023 1.563965-.67978121 3.206543-1.15387177 4.789063-1.83365298-.734375-.21353434-1.634277-.20177887-2.40918-.41727913 1.414063-.16847838 2.806641-.33695676 4.142578-.7307149-.814453-.48389013-1.878418-.4133573-2.608398-.97560386l2.418945-.3624236c-.261719-.4133573-.646484-.78752634-.96875-1.20088363.878906.00978954 1.919922.24683482 2.738281.23606231-.21875-.41238436-.705078-.7865534-.90625-1.24105484.982422-.02937865 1.960938.28797896 2.984375.32128948l-.583007-.9922541c.756836.0088166 1.553711.22430684 2.37207.23410641l-.399414-.950137c4.944336-.98931523 10.20605-1.31842832 15.44141-.99127113l11.8789.8149591c10.32324.8991933 19.99512 3.39206546 28.67676 8.13195793 1.9668 1.6632187 4.69141 3.07176896 5.64453 5.62635735-.8916-4.25895125-4.10644-7.62065508-7.24023-10.92163568-6.74219-6.2767499-14.91407-9.16143433-23.19336-11.74049657-3.29883-1.39288298-6.86914-2.21371983-10.37989-3.0756908l-11.266597-2.51148833c-5.654297-1.21362206-11.636718-.54461335-17.191894.2938567l-3.016602.70329217c.266602-1.82189752 1.654785-3.3048924 2.268067-5.04255575l-.969239-4.69091468 1.845215-2.05209212.0625-1.90662318c-.444824-.51865502-.578125-1.25917953-1.003906-1.69603774-.477539.6317864-.432129 2.02661525-1.555664 1.8493303l-.080567-.1439945c-.047363-1.12840493.150391-2.35769427-.124023-3.38766216l-1.15625-.91584353-6.536621.7664728-5.042481-1.04417074c-1.949218.47016872-4.500488-.07346167-5.528808 2.11135093-.390625.22235094-.816895-.00930809-1.227051-.01420286-.447754-.1895319-.854004-.46135211-1.323731-.56909723l-.002929.24634333 1.242187 2.33370187c.756836.00784367.501465.8463037.680176 1.30080514.592285.08913897 1.036133.70966138 1.714356.44959664l1.457031 1.39385592c1.311035-.12930016 2.587402-.81251173 3.933594-.38789045.465332.37613498 1.613769.18414565 1.398437 1.14603813l.730469.54264742c.013184.57400204.067871 1.21264913.678711 1.44381667l.141601.14692334c-.190918 2.31557718-1.174316 4.27461852-1.833496 6.3805832-1.661132 3.86126123-4.909668 7.02510804-7.445312 10.50631246-4.023438 1.04024891-7.769043 2.84452325-11.293945 5.14246722-.567383-4.06891782-2.984375-7.38164387-4.785157-10.93239815-.174316-.84336483-.061035-1.84835736-.071777-2.6691942-.898438-1.98057633-2.022949-3.8612512-3.125977-5.74192608-.087402-1.2733824.333008-2.29403217.814942-3.29510287l-.413086-1.38014454-2.15332-1.50160103c-.046875.65529734.250976 1.37720567.282714 2.11772015-.390625.19982296-.779785.19590113-.895996-.31932355-.172851-.98637636-1.532226-1.9879285-.457031-3.00173764.057129-1.3737653-.195313-2.629023-.282227-3.94402096l-.648925-.45939621c-1.679688.18611159-3.300293.53676968-4.960938.78458747-2.472656-.3575188-4.962402-.79634294-7.5-.86686574l-1.973632.81985388-.651367 1.40805877-1.184571-.15721439c-.446777-.31344581-.850586-.74933108-1.318847-1.00008773.257812.74149744-.062989 1.96932237 1.017578 2.32978004l.181152.18709455c-1.009277.62541717-1.651856-.47016872-2.445313-.8085899.03418.55489438.19043 1.17247792.327149 1.72884674l1.075683.79144817c-.057617 1.51825127 1.721192 1.53882335 2.425293 2.69758989.932618.707214 1.841309.01958911 2.70459-.3594747.981446.05190662 2.047852-.12048356 2.840821.38102974-.026856.5544029.130859.96678725.618652 1.28023306l.053711.73953152c1.815918 2.2156657 3.261719 4.61353118 3.145508 7.62947168.097656 3.98369065.481933 7.8674899 1.381347 11.53186703.625489 2.53106741 1.169434 5.103289 1.876953 7.61476731-.135742 1.08628784-.354492 2.3155872-.079589 3.38521478 1.214355 1.16464427 2.597168 1.91985309 3.895507 2.85823463-1.237793 2.67408897-2.415039 5.36972296-3.24707 8.23383532l-1.099121 3.18930362c.464844 4.0679449.782227 8.42484169.28418 12.62598851-.246094.09991148-2.183594.80516957-2.483399.82181982-.529785-.73757561-.90625-1.60543435-.636718-2.59376661.386718.0049048.790527.353607 1.219726.46722985-.274414-.56223653-.697265-1.08530487-.603515-1.81798571.300293.0685669.467285.52306834.722656.67782531l-.195801-1.59857364c-.575195-.45841325-1.369629-.44665777-2.144043-.4329464l.208008-1.24790552c.429687.09012194.833008.44079007 1.238281.74737519.133789-.43000754-.205566-.79928181-.310059-1.19011113l.514161.13125606c-.121094-.62689162-.606446-1.40267251-.943848-1.94532997l-1.240723-.48975782-2.484375 1.22243867c-.679687 1.22048276-.825683 2.6623335-1.12207 4.05912828.441406.91094876 1.206543 1.67497418 1.820312 2.49972283l-.232421 1.50650584-1.348633 1.42813936c.462402.91094876.120117 2.6309789 1.73291 2.45564984l5.89209-.33401788c.21875.47506348-.032715 1.12840492.186035 1.58094043.573242 1.7121965.674805 3.62226005 1.412598 5.29332243-1.132813 2.44878914-.220703 6.47657285-3.384766 8.3023922-2.128906 1.25378325-2.341797 1.8885085-4.893555 1.55742949-1.377929-.17925088-4.416992-1.03240525-5.829589-.6386471-1.295411.82475868-1.926758 1.19109409-3.059571 2.15984727-.134277.53285788-1.243652.68173712-1.344238 1.35662357.571777.0068607 2.241211.3585118 2.559082 1.11959835l.450684.06758393 1.286132-.83454822.328125 1.0647328c.492188-.28111827.582032-.33695676 1.075684-.7003533.179199.47310759.213379.85218143.330566 1.36642314.411133-.26152916.754883.09893854 1.225098-.12243946l.293457.52208538c.390625-.24194005 1.145508-.57497497 1.568848-.7845975.200683.2899449.012695.71701357.131347 1.02653754.47168-.19982295.863282-.56420246 1.334961-.76402542.119629.24781779.427735.89135965.464844 1.17933862.24707-.1410456.696289-.39866295 1.065918-.51718058.181152.18611159-.897949.33303493-.77832.54069152l.953125-.39376818.192871 1.02653754 1.243164-.42902456c.067383.68173712-.146973-1.33214972-.016602-.47213466-.243652.0509337-.36914.57204614-.817871.65040257l-.626464-1.72590787c-.157227-.00196593-1.036133 1.36348427-.936524.9168265l-.194824-.53873562c-.029785-.07541757-.205566-.30952398-.375488-1.31059468-.805664.54461336-.586914.45253551-1.378907 1.05494326-.197265-.83063642-.13916-.79243114-.114257-1.24888848l-.17334.03330048c-.610352.53384085-1.071778.47016872-1.731934 1.02653755-.085937-.3624236.070801-.9873493-.083008-1.30667285l-1.248535.64157594c-.152344-.49857443-.050781-.77577087-.154785-1.26258983l-1.311523 1.29296147c-.37793-.47996829-.135254-1.21264913-.278809-1.84051369-.516602.43098047-1.044434 1.1910941-1.502441 1.72884674-.12793-.63472526.263183-1.31059467.020996-1.90124695-.452149.15378404-1.010743.3692843-1.441895.59065228-.175781-.40943546.962891-.6229698.810059-1.03241528-2.010254-.31147988-2.520508-.22430684-3.063965.6739135.427734-.67880827-.757813 2.59963432-1.269043 3.8377503l-.006348.6562803c.644043 1.61032911.654785 4.42154186.958008 4.81040524 1.96875 2.39688251 8.632813 2.43802667 11.811035 5.56072932-.426758 1.65538507.71875 2.9405129 1.867188 3.90043945 1.706054 1.09706034 3.948242.43491233 5.674804-.14888927 2.015625.3026733 3.899415.90703695 5.870606 1.36055543 4.34375.2145173 8.439453-3.09821877 8.439453-3.09821877h.000977-.000001z"/>
      <path fill="#fb0f0c" d="m38.526856 223.2479535 1.403808-.60925841c.188965.32520128-.222656.66606984-.376465.9873493-.110839.23508937-.455566.3820127-.524414.66215803 1.867188.1949282 3.664063.99127113 5.623535.58183567 2.094727-.43686823 3.282715-1.28904966 4.450196-2.2959981.595703-.36241357.868652-.84238186 1.445312-1.26749462.695313-.67978122.944336-1.97666452 1.113281-2.23036004-1.033691.50249627-2.101074.4926967-2.807128.7669643 2.614746-1.79350184 2.916992-5.04452169 2.029785-7.69509972l.040527-.0617062c.934082.48290716 1.25 1.44871144 1.54541 2.2910933.149903-.5720361.137207-1.2880667.226563-1.92279196.302734.24977368.482422.62003092.662109.94915404.15625-2.86215646-1.386719-5.10721084-3.243652-7.26410921-1.243652-1.44380664.978027-2.56242203.344726-4.4254637l-2.72998.29385671c-.345215.14692334-.238281.09501671-.238281.09501671.617187-1.37818864 4.192382-2.58495 4.849609-3.38815364-.202637-.14693337-3.343262.98147155-4.500977 1.23615004l4.934571-3.34114179c-.347168-.08521714-1.653321.03232755-2.396973.17925089.725098-.6895808 3.214844-1.65538507 3.878906-2.44878914l-2.321289.41335729 3.763184-3.11879085c-.126465-1.52020718.265625-2.02759821 1.443359-2.99928023 2.007813-1.92573083 4.45752-3.19126955 5.998047-5.53427951 1.02832-2.20392026 1.832031-4.5136197 3.083985-6.61370664-1.59961.33107902-3.082032 1.11272762-4.878907.76598132-4.99707-1.4340171-8.833008-2.3812052-11.551758-6.10827151-1.235839-1.060821-2-2.36162613-3.341308-3.11682492l-4.439942-5.40890118-.179687-.35066813c-1.318848 2.55066655.049805 7.0319587.075195 10.19286664-.037598.18218975-1.237793-1.58584523-1.339355-1.54568405-.630371-2.2117539-1.054688-3.0619694-.759278-.56224656l1.164063 4.93285473-1.850098-2.47034418c-.342285-.51718058-.570801-.46429099-.993652-1.0030266-.82666.64648073.04834 1.55939542.07959 2.40080434.35498 1.25672212 1.089355.89234262 1.929687 2.46740532l2.618652 3.31860378-3.874023-1.34193926c.274902 1.05004849-.026367-.36927427.452148.8658928l3.509766 4.1453284-4.541016-1.5642902c.048829 1.10783285.049317-.19297229.386231.79634294.404785.37417907 1.431152.11950059 1.421875.95992655l.42334.4995574c.415527 1.21460503.954101 2.45271097 1.000976 3.7466554l-.469726 1.63677893c-.549805 1.59269591-1.770508.98342746-2.717285 1.34193926.350097 1.66714054 1.046875 3.23534254 1.02832 4.97986659-.628906 1.30471694-1.54541 3.5105931-1.323731 4.72030336l-.677734 1.1332997c.969238-.28993488 1.94043-.73268085 2.65918-1.56331727.252929.45450145-.075196 1.03339825-.231446 1.4829949-.461425.92270422-1.456054 1.44968437-2.235839 2.00213136l1.73291.6435519c.929687 1.38993408 2.614258 2.48699442 2.745117 4.16980224l-.406738-.11166695c-1.636231-1.63579597-3.904785-2.91308013-6.108887-2.89741285 1.503418.04702188-6.201172 1.34684405-5.711426 1.96589201-.885254-1.11566649-3.400879-1.47319532-5.252441-1.98743702-.820313.33891265-1.189942.27426759-1.788086.86001506.281738.27034576.708496.4799683 1.114746.60730252 2.42334.52011944 8.12793 1.35957246 9.463867 3.59482727.178223-.99127113-.791504-1.75039175-1.870117-2.53106741l2.245117.19002339c4.015625 1.57016793 3.700684 4.64095392 2.991699 7.5804939l-.424316-2.40080436-.837402-1.2772942c-1.326661 2.66428941-.578125 2.30187584 2.53955 5.63712986l-2.256835-.71210876c-1.053223-.74247038-2.787598-2.03053708-4.311036-2.90818536-4.101562-2.33419335-6.154785-3.91513378-11.208007-3.99643912l-1.571778-.25565142c-.952148 2.87586784 1.315918 5.36580113.465821 1.46143985.872558.93347673 1.724121 1.79545773 1.583496 2.31362127.311035.4114014-1.115723 1.5535177-.963379 2.03152005 1.528808 1.369362 7.85791 1.81602981 11.445312 4.95048793.070313-.55832472-1.682617-1.90516878-2-2.38317114 3.384278-.21059546 5.434571.70231923 5.852539 1.75627952.083497.17631202.031739.97559382-.314941 1.24986142-.475586.2762235-.931152.67979124-1.490723.76010358.915528.6562803 1.980469-.34282446 2.737793-.80908137.55127-1.04808256-.450195-2.13143153-.612793-2.95226838.836914.16064474 2.026856 1.52412901 2.209473 2.40962096 1.248535-.19982296 2.407715-.10187742 3.40918.5563588-.840332.22725573-1.70459.5857575-2.587403.78949226-2.306152.62004095-4.6333 3.093324-7.084472 1.3850393l1.166504 1.30471695c2.211914.11166695 4.071289-.9873493 6.055664-1.58877407z"/>
      <path d="M46.166016 221.8119805c.588867-.74639221 1.177734-1.49475036 1.274902-2.46251054l-.148438-.154767c-.392089.5152347-.999511.95993657-1.562011 1.27632125-.052246-1.0118432-.772461-1.96981385-1.69043-2.41255982l-.150879-.00097293c.245606 1.05885506.1875 2.37337157-.188965 3.36072086-.651367.59554704-1.535156.8639369-2.07959 1.48299489 1.45752.25466845 2.81543-.09599968 4.024903-.62004095l.520508-.46918576z"/>
      <path fill="#fff" d="M31.534668 219.59630477c.633301.76990316 1.509277 1.36838907 2.574707 1.22048277-.063965-.98833226-1.47168-1.49082852-2.574707-1.22048277z"/>
      <path d="M40.080078 219.02035687c.924805-.11754469 1.786621-.32520128 2.649902-.5945741-.404785-.32814016-.898437-.42020797-1.28125-.72582015 1.122559-.48192419 2.307618-.8130032 3.264161-1.7298297l-.214356-.10970102c-1.831055.47310759-4.023437.5563588-5.975586.25369552l-.108886.08521714 1.224609 1.93160856-1.702637.45449142c.958008.78753636 2.044434 1.55351769 3.265625 1.84737439-.209472-.47604646-.740722-.9344597-1.121582-1.41246206zm-6.829101-1.64363963c-.922852-.11753466-1.932618-.08619007-2.794434.1195006 1.475098.64256892 3.303711.40455071 4.514648 1.60347843-.250488-.6494196-.775878-1.68966851-1.720214-1.72297903zm13.402343-5.78111432c-.416992-1.10293808.717285-2.53400628-.303222-3.5145049-.870118-.89332559-1.915528-1.61817279-2.917969-2.25485395l.104004.3467463c.912597.93739856 1.760742 1.98058635 2.21875 3.12858038-1.026367-.29189077-2.118164-.71504763-3.276367-.81299318 1.395996 1.82679229 3.868652 3.5145049 3.108398 6.15528337-.026367.4309905-.588379.7914582-.420898 1.18032158 1.301269-1.082366 1.790527-2.60845092 1.487304-4.2285796z"/>
      <path fill="#fff" d="M28.791016 211.06471097c.114746-.2252898.051269-.54265745.076172-.81300321-.271485.154767-.456055.47016872-.729493.60338068.088868.15770587.450196.1390897.653321.20962253zm-1.731446-1.58878411-.547851.5808527c.133789.09306082.312011.23018458.539062.16456658l.008789-.74541928zm-1.389648-.52502424c-.135254-.0039118-.413574.63276936-.549316.63081346l.470214.23998414c.157715.00097294.032227-.76010358.079102-.8707976zm-1.417969-.2076566.12793-.36045766c-.31543.04113412-.446777.65039253-.629883.82867048.534668.07640054.562012.21745617.501953-.46821282zm-1.546875-.73463674-.519043.9834375.534668.09207783-.015625-1.07551533zm-1.444824.24095708-.625488.52208538c.668457.2164732.710937.30855104.625488-.52208538zm-1.550781.46821282c-.109864-.27230166-.037598-.61121432-.035157-.90507102-.138183.29287373-.479492.51522467-.505371.85413733.15625.11362285.360352.04897779.540528.05093369z"/>
      <path d="M38.720703 197.04583948c-.228515-.37221314-.26123-.83650412-.489258-1.2087273-.4375 1.0627769-.315429 2.30578765.370118 3.20499096 1.13623.42020797 2.23291.86001507 3.22998 1.56918497-.468262-1.30471694-1.84375-2.6975899-3.11084-3.56544863zm1.226563-10.88832516.066894 3.05805759c1.484375.83847005 3.052246 1.51433947 4.429688 2.65841167-1.14209-2.04523142-2.632813-4.09535761-4.496582-5.71646926z"/>
      <path fill="#fb0f0c" d="M39.460938 188.74149138c-.169922-1.11175468-.279297-2.26268758-.80127-3.21282459-1.429688-.16064474-4.786133.98931523-6.023438.17827795l-.192871-.00196593c-.568847-.95404882-.749511-2.12163196-.995605-3.15796907-.291504 1.1597495.207031 2.67408897-1.069336 3.39305844l.184082.73463674 6.080078-.14301153c1.387207.42706867.876465 3.88868398 2.81836 2.209798z"/>
      <path d="M61.80957 183.1288454c.461914-.97951565.739746-2.0236864 1.120118-3.04531914l-.143555-.00098297c-1.495117 1.95218064-3.456055 3.48904809-5.217285 5.25413418l-1.75293 3.03846848c2.043457-1.63873483 4.029785-3.4420262 5.993652-5.24630054zm-13.986816 4.47639739c.942871-1.81601978 2.372559-3.42047116 2.866699-5.44611347 2.712402-2.71914493 6.09961-3.76821045 9.527832-4.71344266.040527.04113412.061035.1234124.14209.10382328l.103516-.10186738-.204102-.0019559.000977-.10383331c-3.003418-.40355772-6.198731-.07150577-8.514161 1.87284124-.84375.52404127-1.550293 1.41833979-2.712402 1.09706034l-.348633.05681143c.399903 2.5291115-.079101 5.05039941-.963867 7.23472053l.102051.0019559z"/>
      <path fill="#fb0f0c" d="m30.716797 178.87578193.169434-1.61425095c-.61084.78949226-1.32959 1.55743952-1.126465 2.63686666.239746-.34086856.460937-.87764828.957031-1.02261571zm36.322266-5.64104166c1.114257-.74737518 1.128417-2.04033665 1.408203-3.18637478.158203-4.9446102-.955078-9.51504133-4.455079-13.04326764-3.95996-2.61138978-8.615234-3.5282263-13.521484-3.91219492l-4.273437-.23312344-.142579-.14693337c.867188-.64648073 1.853516-.96383835 2.819825-1.36348427-1.528809-.53090198-3.078125-1.01967684-4.648438-1.46927348 1.092774-.68566898 2.40625-1.05984806 3.799317-1.14800407-.014161-4.12376332-3.050782-7.03293164-4.359375-10.64148031-.335938-1.02849345-.28125-2.2186146-.453125-3.30783128-1.086915-1.59367887-1.926758-3.28628626-2.725098-4.99946572-.217285-.78263157.531738-1.81895865-.466309-2.22056047.125489-.24488895.169922-.53285788.294922-.77774683-1.027344.37810091-1.609375-.55146402-2.092773-1.25573915l-1.018555-2.22742117.229492-2.17257568-.574218-1.62844377c-.655274.07444463-1.354004.29139929-2.011719.50983842-2.67334-.62591869-5.367188-1.33410562-8.293946-1.22439457-.228515.42755012-.458984.8570762-.853027 1.22047274.936035.46233508 2.144531.45645734 3.183594.73512822.915039.56420246 1.746094 1.2728909 2.597656 1.99968398-.512207.0156773-1.228027-.09598964-1.720215.06268916.424805.43588527 1.265625.30267331 1.501465 1.06375987l1.839356-1.51825128c1.022461.0127284 1.989746-.38690748 2.988769-.10971105-1.340332.88940375-2.621582 2.00311433-3.761719 3.26375829 1.719727-.08423418 2.747559-2.22742117 4.688477-1.95805838l.040527.04016118c-1.283691 1.19697183-2.362304 2.58005524-3.48291 3.90142242.759277 1.56821203 1.663574 3.07862966 1.806152 4.90543198-.466796 3.17657521.461915 6.04068758.796387 9.0203787.666992 4.29616353 2.177246 8.25538034 2.844238 12.53195476l.021485 1.72395197 1.074707.81300321c.125976-.28406716.171387-.59359114.356933-.83651415 1.518067 3.28040852 4.200196 6.67836174 7.408204 8.80782733-.536133-1.40070659-1.543946-2.68583442-2.698731-3.72510037 4.386719 1.18031155 6.879883 6.73026836 11.053223 8.58351046 2.15625 1.15387177 4.4375 2.08245374 6.887695 2.54381588-.69873.27916237-1.519531.45449142-2.318848.5671313 1.28125.73366381 2.854493.93642564 4.512207.85218143l.101563.0842442c-1.234375.54069153-2.566406.76990316-4.039063.6915367 1.122071.2811283 2.180664.76598132 3.431641.5945741l2.224609-1.41050615h.000001z"/>
      <path fill="#fb0f0c" d="M76.144043 153.69824955c2.504395-2.49777696 4.997559-5.7115745 8.283203-6.69892379 3.107422-1.56625612 6.453125-2.44978214 9.998047-2.90231765 11.791017-.29482964 23.380857.74247038 34.408207 2.67604488 4.59179 1.10098218 9.01562 2.58788887 13.29101 4.42154186-3.36816-2.4194105-6.99609-5.456896-11.05273-6.8595585-6.88477-2.82885597-13.85157-5.43339509-21.28418-6.89580787l-10.247073-2.08931444c-4.621093-.33989562-9.371093-.14888927-13.759765.58183567-7.030762 1.14994994-13.564942 3.5164608-19.622071 7.09954264-2.829589 2.26660942-6.33496 2.80044024-9.48291 4.28245216l-1.728515.861981c.6875.74834812 1.706054 1.14994994 2.580078 1.61228502 4.111816 1.9355304 9.413574 1.70827466 12.165039 6.23561576l-.103027.10186739c-1.178223-.73268084-2.482911-1.19892773-3.809571-1.56331726 3.505371 3.0776467 4.76709 7.25823147 4.817383 11.8159342 1.563965-4.35395793 2.39502-9.02234464 5.547363-12.67986107h-.000488z"/>
      <path d="M66.307129 163.92637257c-.910156-2.73873404-2.566406-6.39037274-5.852051-7.1073863l-2.019043-.67978122c.993652.8747094 2.351563 2.0589428 3.115723 3.23829144 1.975097.72092537 3.54541 2.97576928 4.755371 4.54887608zm-12.129395-7.52857723c-.773437-.35654587-1.671386-.573992-2.611816-.6249257-1.431152-.11951062-2.925293-.07444463-4.318848.09403375-.915039-.54461336-1.725097-1.35369473-2.618164-1.93945224-1.219238-.7111258-2.4375-1.56722906-3.974121-1.33801742 1.558106 1.55644653 3.154785 3.2382814 4.963379 4.3059631 2.919434.60925842 5.612305-.55049109 8.55957-.4976015zm17.644532-12.39089914c2.944335-3.41460345 4.480957-2.2959981 8.222656-3.8730167 4.991699-1.68672965 10.421387-2.32145491 15.891113-2.81317867 5.362305-.0617062 10.488285.7777368 15.553715 1.61620685-3.6875-1.37720567-7.64746-2.30480467-11.75391-2.80534504-4.069336-.33303492-8.566407-.7326708-12.34375.39181228-7.240235 1.45654508-14.302246 3.38521478-20.307617 7.89295674-1.56543.82475868-2.181153 1.8669635-4.419434 2.25485395l-1.583008 2.8523569c2.683594-2.82493415 8.342285-5.27764513 10.740235-5.5166463z"/>
      <path d="M81.666016 144.62398826c-.550293-.2742676-1.327637-.26251212-1.896485-.59750295 1.621094-.37222317 3.360352-.4329464 5.061035-.63963006-.323242-.28993487-.875976-.23507934-1.283691-.46722985.782715-.40160182 1.804199-.37025724 2.708496-.54264742 1.679688-.16553951 3.378906-.22725574 5.017578-.43491234-.734375-.21353433-1.532226-.26348505-2.308594-.37416904l1.230469-.23313347 10.871096-.47016872 3.29492-.00097294-.16211-.1674954c-9.5-1.29884924-19.951171-1.64755144-27.587402 3.86712893l-2.579101 1.90027401c2.604003-.46233508 5.148437-1.0696376 7.633789-1.83954075zm-39.381348-9.29758516c-.921387-1.69456329-1.78125-3.42831483-2.950684-4.96027748-.101562 1.74354108-.428222 3.46357122-.732421 5.06018896.473632-.28210123.908203-.62493572 1.34082-1.01086024.901367 1.67497418 1.432129 3.5879766 2.477539 5.2423787l.395019 1.23615005c-.10205-1.78664113-.285156-3.7378388-.530273-5.56758z"/>
      <path fill="#fb0f0c" d="M76.995605 134.78277271c.109375-.5122858.666993-.97658682.325684-1.57604566.395996-.59163524.628906-1.32822789.942871-2.0021414l1.462403-2.5888618c.506347-1.22537754-2.274903-1.46242282-.666016-2.53107745l-.541504-2.71816196 1.132813-.72288128c-.48584-.39769001-1.182129-.3839686-1.606446-.79977329-.006836-1.2728909.131348-2.58446854-.449707-3.5967932-1.597168.00244738-3.053223.29287374-4.589355.43931562-3.166992-.36438953-7.022461-1.47711715-9.90625.23458786-.14502.16210916-.413086.3031648-.456055.52796311l1.035645.60828548c1.3125-.3134458 2.767578-.37956532 4.11914-.44519335l-.849609.83062639c1.266601.21941206 2.38623.72583016 3.568359 1.10783284.578125-.40257475 1.135742-.8477681 1.733398-1.20970023l.100586.10431477-.505859 1.32822788c1.071777-.68664192 2.507812-.97805123 3.899902-1.08481338l.101563.1038333-2.231934 1.88360372c1.166016.03232755 2.34961.29483967 3.367188.77676386-.535157.30364624-1.312012.21059547-1.907227.43000754l-2.035156.75716471-.160157 1.4761342c.842286-.29875148 1.62793-1.02751049 2.606446-.6474637-.808106.83259231-2.042481 1.41247208-2.525391 2.51541016-.478515 2.43703367-.509277 4.66446487-1.375 6.93204723l-3.380859 3.23338663c3.208984-1.46143984 5.462402-2.25484391 8.790527-3.36562566v-.00097294z"/>
      <path d="M36.810547 132.79924749c.491211-1.86304167.519531-4.26188008-.422852-5.91530925-.200683-.41434026-.442382-.80614251-.57959-1.23811598l-.103027-.00097293-.591797 1.61424092c.716797 1.79447477 1.494141 3.58895956 1.697266 5.54015724z"/>
      <path fill="#fb0f0c" d="m25.914063 122.9237485-1.660645.30952397c.529785.17141725 1.226563.05485553 1.660645-.30952398zm-.663086-1.09412148c-.483399-.60191626-1.366211-.3447904-2.063477-.27132873.589844.29482964 1.366699.46869427 2.063477.27132873z"/>
      <path d="M33.043945 219.40432548c.367188.0724787.600098.45841325.520996.86295394-.079589.40649659-.441406.67391351-.807617.60240774-.367187-.07248873-.600098-.46037917-.520996-.8639369.07959-.40454069.441406-.6739135.807617-.60142478zm5.950196-30.00656382-1.285157 2.57025566c1.483399.83651415 4.403809 2.00115843 5.781739 3.1462136-1.14209-2.04523142-2.632813-4.09438468-4.496582-5.71646926zm-.111328 4.01602824-.935547 1.87284123c1.081054.61121432 3.209961 1.46143985 4.214843 2.2950051-.833984-1.49180146-1.919921-2.98458589-3.279296-4.16784634zm.675293-10.32412271c-.274903-.4486237-1.382813-2.2930492-1.919434-1.15681064-.529785 1.28512783 1.103027 2.93952994 1.931641 4.02875664 1.725097.640603 3.0625 1.2988392 3.909668 1.90026399-.566407-1.57898454-2.389161-3.7202056-3.921875-4.77221z"/>
    </g>
  </g>
</svg>